# xmcd
#
# Track frame offsets:
#	150
#	14387
#	29895
#	47367
#	60292
#	77535
#	92215
#	108722
#	119380
#	135020
#
# Disc length: 1974 seconds
#
# Revision: 1
# Processed by: cddbd v1.4PL0 Copyright (c) Steve Scherf et al.
# Submitted via: audiograbber 1.80.04
#
DISCID=7607b40a
DTITLE=Kenny Rogers - Love Songs Volume 2
DYEAR=1900
DGENRE=
TTITLE0=Day Time Friends
TTITLE1=Love, Love, Love
TTITLE2=All My LIfe
TTITLE3=Love Or Something Like It
TTITLE4=We've Got Tonight
TTITLE5=A Love Story
TTITLE6=Don't Fall In Love With A Dreamer
TTITLE7=Anyone Who Isn't Me Tonight
TTITLE8=I Don't Need You
TTITLE9=You Are So Beautiful
EXTD=
EXTT0=
EXTT1=
EXTT2=
EXTT3=
EXTT4=
EXTT5=
EXTT6=
EXTT7=
EXTT8=
EXTT9=
PLAYORDER=
